<svg xmlns="http://www.w3.org/2000/svg" width="1000" height="422" viewBox="0 0 1000 422" role="img" aria-label="Estadísticas del perfil de Dreftian">
  <defs>
    <linearGradient id="accent" x1="0" y1="0" x2="0" y2="1">
      <stop offset="0%" stop-color="#c084fc"/>
      <stop offset="100%" stop-color="#6366f1"/>
    </linearGradient>
    <linearGradient id="num" x1="0" y1="0" x2="1" y2="0">
      <stop offset="0%" stop-color="#ffffff"/>
      <stop offset="100%" stop-color="#d8b4fe"/>
    </linearGradient>
    <style>
      text { font-family: ui-monospace, SFMono-Regular, Menlo, Consolas, monospace; }
      .num { font-size: 38px; font-weight: 700; fill: url(#num); }
      .label { font-size: 13px; font-weight: 600; letter-spacing: 0.6px; fill: #b9a3f7; }
      .sub { font-size: 11px; letter-spacing: 0.4px; fill: #6b6b85; }
      .section { font-size: 12px; font-weight: 700; letter-spacing: 2px; fill: #8b8ba7; }
      .lang { font-size: 13px; fill: #c9c9d6; }
      .pct { font-size: 12px; fill: #8b8ba7; text-anchor: end; }
      .accent { animation: breathe 6s ease-in-out infinite; }
      @keyframes breathe { 0%, 100% { opacity: 0.5; } 50% { opacity: 1; } }
      @media (prefers-reduced-motion: reduce) { .accent { animation: none; } }
    </style>
  </defs>

  <rect width="1000" height="422" rx="18" fill="#0a0a12"/>
  <rect x="0.5" y="0.5" width="999" height="421" rx="18" fill="none" stroke="#ffffff" stroke-opacity="0.08"/>

  <g transform="translate(24,24)"><rect width="226" height="118" rx="14" fill="#12121c" stroke="#ffffff" stroke-opacity="0.08"/><rect width="3" height="118" rx="1.5" fill="url(#accent)" class="accent" style="animation-delay:0.0s"/><text x="22" y="58" class="num">384</text><text x="22" y="82" class="label">Contribuciones</text><text x="22" y="100" class="sub">últimos 12 meses</text></g><g transform="translate(266,24)"><rect width="226" height="118" rx="14" fill="#12121c" stroke="#ffffff" stroke-opacity="0.08"/><rect width="3" height="118" rx="1.5" fill="url(#accent)" class="accent" style="animation-delay:0.7s"/><text x="22" y="58" class="num">7</text><text x="22" y="82" class="label">Repositorios</text><text x="22" y="100" class="sub">públicos</text></g><g transform="translate(508,24)"><rect width="226" height="118" rx="14" fill="#12121c" stroke="#ffffff" stroke-opacity="0.08"/><rect width="3" height="118" rx="1.5" fill="url(#accent)" class="accent" style="animation-delay:1.4s"/><text x="22" y="58" class="num">13</text><text x="22" y="82" class="label">Lenguajes</text><text x="22" y="100" class="sub">en código público</text></g><g transform="translate(750,24)"><rect width="226" height="118" rx="14" fill="#12121c" stroke="#ffffff" stroke-opacity="0.08"/><rect width="3" height="118" rx="1.5" fill="url(#accent)" class="accent" style="animation-delay:2.1s"/><text x="22" y="58" class="num">5</text><text x="22" y="82" class="label">Releases</text><text x="22" y="100" class="sub">publicadas</text></g>

  <text x="24" y="182" class="section">LENGUAJES · CÓDIGO PÚBLICO</text>
  <g transform="translate(24,196)"><rect x="0.000" y="0" width="709.068" height="14" fill="#3b82f6"/><rect x="709.068" y="0" width="227.865" height="14" fill="#a855f7"/><rect x="936.932" y="0" width="32.705" height="14" fill="#ec4899"/><rect x="969.637" y="0" width="14.448" height="14" fill="#f59e0b"/><rect x="984.086" y="0" width="7.483" height="14" fill="#22d3ee"/><rect x="991.568" y="0" width="5.521" height="14" fill="#10b981"/><rect x="997.089" y="0" width="2.911" height="14" fill="#4b5563"/></g>

  <g transform="translate(24,228)">
    <text x="0" y="12" class="lang">TypeScript</text><rect x="150" y="3" width="470.0" height="11" rx="5.5" fill="#3b82f6"/><text x="620" y="12" class="pct">70.9%</text><text x="0" y="36" class="lang">MDX</text><rect x="150" y="27" width="151.0" height="11" rx="5.5" fill="#a855f7"/><text x="620" y="36" class="pct">22.8%</text><text x="0" y="60" class="lang">CSS</text><rect x="150" y="51" width="21.7" height="11" rx="5.5" fill="#ec4899"/><text x="620" y="60" class="pct">3.3%</text><text x="0" y="84" class="lang">HTML</text><rect x="150" y="75" width="9.6" height="11" rx="5.5" fill="#f59e0b"/><text x="620" y="84" class="pct">1.4%</text><text x="0" y="108" class="lang">JavaScript</text><rect x="150" y="99" width="5.0" height="11" rx="5.5" fill="#22d3ee"/><text x="620" y="108" class="pct">0.7%</text><text x="0" y="132" class="lang">Python</text><rect x="150" y="123" width="3.7" height="11" rx="5.5" fill="#10b981"/><text x="620" y="132" class="pct">0.6%</text><text x="0" y="156" class="lang">Otros (7)</text><rect x="150" y="147" width="1.9" height="11" rx="5.5" fill="#4b5563"/><text x="620" y="156" class="pct">0.3%</text>
  </g>
</svg>
